<svg xmlns="http://www.w3.org/2000/svg" width="22.553" height="22.496" viewBox="0 0 22.553 22.496">
    <g id="Group_28692" data-name="Group 28692" transform="translate(-180.159 -423.763)">
        <path id="Path_71" data-name="Path 71" d="M191.479,429.039a5.967,5.967,0,1,0,5.934,5.967,5.951,5.951,0,0,0-5.934-5.967Zm0,11.019a5.052,5.052,0,1,1,5.024-5.052,5.038,5.038,0,0,1-5.024,5.052Z" fill="#fff" stroke="#fff" stroke-miterlimit="8" stroke-width="1" fill-rule="evenodd"/>
        <path id="Path_72" data-name="Path 72" d="M191.95,427.071v-2.348a.466.466,0,0,0-.931,0v2.348a.466.466,0,0,0,.931,0Z" fill="#fff" stroke="#fff" stroke-miterlimit="8" stroke-width="1" fill-rule="evenodd"/>
        <path id="Path_73" data-name="Path 73" d="M191.484,442.491a.463.463,0,0,0-.465.461V445.3a.466.466,0,0,0,.931,0v-2.347a.463.463,0,0,0-.466-.461Z" fill="#fff" stroke="#fff" stroke-miterlimit="8" stroke-width="1" fill-rule="evenodd"/>
        <path id="Path_74" data-name="Path 74" d="M201.764,434.5h-2.285a.465.465,0,0,0,0,.929h2.285a.465.465,0,0,0,0-.929Z" fill="#fff" stroke="#fff" stroke-miterlimit="8" stroke-width="1" fill-rule="evenodd"/>
        <path id="Path_75" data-name="Path 75" d="M183.936,434.963a.463.463,0,0,0-.461-.465h-2.354a.465.465,0,0,0,0,.929h2.354a.463.463,0,0,0,.461-.464Z" fill="#fff" stroke="#fff" stroke-miterlimit="8" stroke-width="1" fill-rule="evenodd"/>
        <path id="Path_76" data-name="Path 76" d="M197.462,429.661l1.61-1.606a.453.453,0,0,0-.642-.64l-1.609,1.606a.452.452,0,0,0,.2.758.454.454,0,0,0,.439-.118Z" fill="#fff" stroke="#fff" stroke-miterlimit="8" stroke-width="1" fill-rule="evenodd"/>
        <path id="Path_77" data-name="Path 77" d="M185.53,440.282l-1.609,1.606a.453.453,0,1,0,.641.64l1.61-1.606a.453.453,0,0,0-.642-.64Z" fill="#fff" stroke="#fff" stroke-miterlimit="8" stroke-width="1" fill-rule="evenodd"/>
        <path id="Path_78" data-name="Path 78" d="M197.46,440.282a.456.456,0,0,0-.641,0,.451.451,0,0,0,0,.638l1.609,1.606a.456.456,0,0,0,.641,0,.451.451,0,0,0,0-.638Z" fill="#fff" stroke="#fff" stroke-miterlimit="8" stroke-width="1" fill-rule="evenodd"/>
        <path id="Path_79" data-name="Path 79" d="M185.527,429.661a.453.453,0,0,0,.642-.64l-1.61-1.606a.453.453,0,0,0-.641.64Z" fill="#fff" stroke="#fff" stroke-miterlimit="8" stroke-width="1" fill-rule="evenodd"/>
    </g>
</svg>
